<svg width="131" height="34" viewBox="0 0 131 34" fill="none" xmlns="http://www.w3.org/2000/svg">
<path d="M17.6324 6.47993L18.8667 5.26429C21.2905 2.87708 25.2366 2.818 27.6743 5.19144C28.598 6.09279 29.2119 7.25647 29.4297 8.51904C29.6474 9.78162 29.4581 11.0797 28.8883 12.2308C28.615 12.7807 28.523 13.401 28.6249 14.0049C28.7269 14.6088 29.0178 15.1663 29.4571 15.5995C30.265 14.8021 30.9052 13.8557 31.3415 12.8144C31.7778 11.7732 32.0016 10.6575 32 9.53102C31.9982 8.4046 31.7715 7.28952 31.3321 6.24949C30.8928 5.20945 30.2497 4.26486 29.4397 3.46966C26.0309 0.131305 20.4978 0.197738 17.0985 3.54548L5.33364 15.1323L4.36646 14.1797C1.90153 11.752 1.88582 7.78373 4.39424 5.39918C5.32274 4.51925 6.50567 3.94484 7.77976 3.75523C9.05386 3.56562 10.3563 3.77017 11.5073 4.34064C12.0327 4.60579 12.6297 4.70064 13.2131 4.61165C13.7964 4.52266 14.3363 4.25438 14.7556 3.84513L14.7856 3.81574C14.795 3.80661 14.8024 3.79575 14.8074 3.78377C14.8125 3.77182 14.8151 3.75898 14.8151 3.74602C14.8151 3.73307 14.8125 3.72023 14.8074 3.70827C14.8024 3.69632 14.795 3.68545 14.7856 3.67631C13.1664 2.12157 10.9965 1.24828 8.73504 1.24121C6.47364 1.23416 4.29814 2.09388 2.6689 3.63848C-0.840669 6.97528 -0.828128 12.5241 2.62128 15.9213L14.3827 27.505L13.1333 28.7355C10.7095 31.1227 6.7633 31.1818 4.32567 28.8084C3.40196 27.9071 2.78812 26.7433 2.57035 25.4808C2.3526 24.2182 2.54185 22.9202 3.11154 21.769C3.38485 21.2191 3.47697 20.5988 3.37503 19.995C3.27307 19.391 2.98214 18.8334 2.54288 18.4003C1.73509 19.1978 1.09475 20.1441 0.658438 21.1853C0.222123 22.2267 -0.0016125 23.3423 8.74824e-06 24.4688C0.00163001 25.5952 0.228576 26.7103 0.667888 27.7503C1.1072 28.7904 1.75026 29.735 2.56034 30.5301C5.96896 33.8687 11.5022 33.8024 14.9015 30.4545L26.6816 18.8522L27.6524 19.8084C30.0763 22.1956 30.1363 26.082 27.7264 28.4828C26.8113 29.3927 25.6297 29.9971 24.3478 30.2117C23.0659 30.4262 21.7479 30.2397 20.579 29.6785C20.0205 29.4092 19.3905 29.3184 18.777 29.4191C18.1636 29.5196 17.5973 29.8064 17.1576 30.2394C17.9673 31.035 18.9281 31.6657 19.9853 32.0955C21.0426 32.5252 22.1753 32.7456 23.3192 32.744C24.4628 32.7423 25.5951 32.5187 26.651 32.0861C27.707 31.6534 28.6661 31.02 29.4735 30.2222C32.8632 26.8651 32.7958 21.4154 29.3967 18.0677L17.6324 6.47993ZM16.139 25.7745L7.09041 16.8627L15.8755 8.21046L24.9241 17.1223L16.139 25.7745Z" fill="white"/>
<path d="M53.056 17.4H45.256L43.768 21H39.784L47.272 4.2H51.112L58.624 21H54.544L53.056 17.4ZM51.832 14.448L49.168 8.016L46.504 14.448H51.832ZM76.639 7.896C78.255 7.896 79.535 8.376 80.479 9.336C81.439 10.28 81.919 11.704 81.919 13.608V21H78.175V14.184C78.175 13.16 77.959 12.4 77.527 11.904C77.111 11.392 76.511 11.136 75.727 11.136C74.847 11.136 74.151 11.424 73.639 12C73.127 12.56 72.871 13.4 72.871 14.52V21H69.127V14.184C69.127 12.152 68.311 11.136 66.679 11.136C65.815 11.136 65.127 11.424 64.615 12C64.103 12.56 63.847 13.4 63.847 14.52V21H60.103V8.088H63.679V9.576C64.159 9.032 64.743 8.616 65.431 8.328C66.135 8.04 66.903 7.896 67.735 7.896C68.647 7.896 69.471 8.08 70.207 8.448C70.943 8.8 71.535 9.32 71.983 10.008C72.511 9.336 73.175 8.816 73.975 8.448C74.791 8.08 75.679 7.896 76.639 7.896ZM98.0635 14.592C98.0635 14.64 98.0395 14.976 97.9915 15.6H88.2235C88.3995 16.4 88.8155 17.032 89.4715 17.496C90.1275 17.96 90.9435 18.192 91.9195 18.192C92.5915 18.192 93.1835 18.096 93.6955 17.904C94.2235 17.696 94.7115 17.376 95.1595 16.944L97.1515 19.104C95.9355 20.496 94.1595 21.192 91.8235 21.192C90.3675 21.192 89.0795 20.912 87.9595 20.352C86.8395 19.776 85.9755 18.984 85.3675 17.976C84.7595 16.968 84.4555 15.824 84.4555 14.544C84.4555 13.28 84.7515 12.144 85.3435 11.136C85.9515 10.112 86.7755 9.32 87.8155 8.76C88.8715 8.184 90.0475 7.896 91.3435 7.896C92.6075 7.896 93.7515 8.168 94.7755 8.712C95.7995 9.256 96.5995 10.04 97.1755 11.064C97.7675 12.072 98.0635 13.248 98.0635 14.592ZM91.3675 10.728C90.5195 10.728 89.8075 10.968 89.2315 11.448C88.6555 11.928 88.3035 12.584 88.1755 13.416H94.5355C94.4075 12.6 94.0555 11.952 93.4795 11.472C92.9035 10.976 92.1995 10.728 91.3675 10.728ZM100.556 3.192H104.3V21H100.556V3.192ZM107.775 8.088H111.519V21H107.775V8.088ZM109.647 6.288C108.959 6.288 108.399 6.088 107.967 5.688C107.535 5.288 107.319 4.792 107.319 4.2C107.319 3.608 107.535 3.112 107.967 2.712C108.399 2.312 108.959 2.112 109.647 2.112C110.335 2.112 110.895 2.304 111.327 2.688C111.759 3.072 111.975 3.552 111.975 4.128C111.975 4.752 111.759 5.272 111.327 5.688C110.895 6.088 110.335 6.288 109.647 6.288ZM121.138 21.192C119.778 21.192 118.554 20.912 117.466 20.352C116.394 19.776 115.554 18.984 114.946 17.976C114.338 16.968 114.034 15.824 114.034 14.544C114.034 13.264 114.338 12.12 114.946 11.112C115.554 10.104 116.394 9.32 117.466 8.76C118.554 8.184 119.778 7.896 121.138 7.896C122.498 7.896 123.714 8.184 124.786 8.76C125.858 9.32 126.698 10.104 127.306 11.112C127.914 12.12 128.218 13.264 128.218 14.544C128.218 15.824 127.914 16.968 127.306 17.976C126.698 18.984 125.858 19.776 124.786 20.352C123.714 20.912 122.498 21.192 121.138 21.192ZM121.138 18.12C122.098 18.12 122.882 17.8 123.49 17.16C124.114 16.504 124.426 15.632 124.426 14.544C124.426 13.456 124.114 12.592 123.49 11.952C122.882 11.296 122.098 10.968 121.138 10.968C120.178 10.968 119.386 11.296 118.762 11.952C118.138 12.592 117.826 13.456 117.826 14.544C117.826 15.632 118.138 16.504 118.762 17.16C119.386 17.8 120.178 18.12 121.138 18.12Z" fill="#ADBCC2"/>
<path d="M40.912 26.4H41.504V31.488H44.64V32H40.912V26.4ZM49.1506 30.504H46.0306L45.3586 32H44.7426L47.3026 26.4H47.8866L50.4466 32H49.8226L49.1506 30.504ZM48.9346 30.024L47.5906 27.016L46.2466 30.024H48.9346ZM56.0529 26.4V32H55.5649L51.9649 27.456V32H51.3729V26.4H51.8609L55.4689 30.944V26.4H56.0529ZM61.8248 29.2H62.3928V31.336C62.1314 31.5653 61.8221 31.7413 61.4648 31.864C61.1074 31.9867 60.7314 32.048 60.3368 32.048C59.7768 32.048 59.2728 31.9253 58.8248 31.68C58.3768 31.4347 58.0248 31.096 57.7688 30.664C57.5128 30.2267 57.3848 29.7387 57.3848 29.2C57.3848 28.6613 57.5128 28.176 57.7688 27.744C58.0248 27.3067 58.3768 26.9653 58.8248 26.72C59.2728 26.4747 59.7794 26.352 60.3448 26.352C60.7714 26.352 61.1634 26.4213 61.5208 26.56C61.8781 26.6933 62.1794 26.8933 62.4248 27.16L62.0568 27.536C61.6141 27.0987 61.0514 26.88 60.3688 26.88C59.9154 26.88 59.5048 26.9813 59.1368 27.184C58.7741 27.3813 58.4888 27.6587 58.2808 28.016C58.0728 28.368 57.9688 28.7627 57.9688 29.2C57.9688 29.6373 58.0728 30.032 58.2808 30.384C58.4888 30.736 58.7741 31.0133 59.1368 31.216C59.4994 31.4187 59.9074 31.52 60.3608 31.52C60.9368 31.52 61.4248 31.376 61.8248 31.088V29.2ZM66.3243 32.048C65.5989 32.048 65.0336 31.84 64.6283 31.424C64.2229 31.008 64.0203 30.4027 64.0203 29.608V26.4H64.6123V29.584C64.6123 30.2347 64.7589 30.72 65.0523 31.04C65.3456 31.36 65.7696 31.52 66.3243 31.52C66.8843 31.52 67.3109 31.36 67.6043 31.04C67.8976 30.72 68.0443 30.2347 68.0443 29.584V26.4H68.6203V29.608C68.6203 30.4027 68.4176 31.008 68.0123 31.424C67.6123 31.84 67.0496 32.048 66.3243 32.048ZM73.799 30.504H70.679L70.007 32H69.391L71.951 26.4H72.535L75.095 32H74.471L73.799 30.504ZM73.583 30.024L72.239 27.016L70.895 30.024H73.583ZM79.8873 29.2H80.4553V31.336C80.1939 31.5653 79.8846 31.7413 79.5273 31.864C79.1699 31.9867 78.7939 32.048 78.3993 32.048C77.8393 32.048 77.3353 31.9253 76.8873 31.68C76.4393 31.4347 76.0873 31.096 75.8313 30.664C75.5753 30.2267 75.4473 29.7387 75.4473 29.2C75.4473 28.6613 75.5753 28.176 75.8313 27.744C76.0873 27.3067 76.4393 26.9653 76.8873 26.72C77.3353 26.4747 77.8419 26.352 78.4073 26.352C78.8339 26.352 79.2259 26.4213 79.5833 26.56C79.9406 26.6933 80.2419 26.8933 80.4873 27.16L80.1193 27.536C79.6766 27.0987 79.1139 26.88 78.4313 26.88C77.9779 26.88 77.5673 26.9813 77.1993 27.184C76.8366 27.3813 76.5513 27.6587 76.3433 28.016C76.1353 28.368 76.0312 28.7627 76.0312 29.2C76.0312 29.6373 76.1353 30.032 76.3433 30.384C76.5513 30.736 76.8366 31.0133 77.1993 31.216C77.5619 31.4187 77.9699 31.52 78.4233 31.52C78.9993 31.52 79.4873 31.376 79.8873 31.088V29.2ZM86.0908 31.488V32H82.1308V26.4H85.9708V26.912H82.7228V28.904H85.6188V29.408H82.7228V31.488H86.0908ZM89.5761 26.4H90.1681V32H89.5761V26.4ZM96.6701 26.4V32H96.1821L92.5821 27.456V32H91.9901V26.4H92.4781L96.0861 30.944V26.4H96.6701ZM100.042 32.048C99.6259 32.048 99.2259 31.9813 98.8419 31.848C98.4633 31.7147 98.1699 31.5387 97.9619 31.32L98.1939 30.864C98.3966 31.0667 98.6659 31.232 99.0019 31.36C99.3379 31.4827 99.6846 31.544 100.042 31.544C100.543 31.544 100.919 31.4533 101.17 31.272C101.421 31.0853 101.546 30.8453 101.546 30.552C101.546 30.328 101.477 30.1493 101.338 30.016C101.205 29.8827 101.039 29.7813 100.842 29.712C100.645 29.6373 100.37 29.5573 100.018 29.472C99.5966 29.3653 99.2606 29.264 99.0099 29.168C98.7593 29.0667 98.5433 28.9147 98.3619 28.712C98.1859 28.5093 98.0979 28.2347 98.0979 27.888C98.0979 27.6053 98.1726 27.3493 98.3219 27.12C98.4713 26.8853 98.7006 26.6987 99.0099 26.56C99.3193 26.4213 99.7033 26.352 100.162 26.352C100.482 26.352 100.794 26.3973 101.098 26.488C101.407 26.5733 101.674 26.6933 101.898 26.848L101.698 27.32C101.463 27.1653 101.213 27.0507 100.946 26.976C100.679 26.896 100.418 26.856 100.162 26.856C99.6713 26.856 99.3006 26.952 99.0499 27.144C98.8046 27.3307 98.6819 27.5733 98.6819 27.872C98.6819 28.096 98.7486 28.2773 98.8819 28.416C99.0206 28.5493 99.1913 28.6533 99.3939 28.728C99.6019 28.7973 99.8793 28.8747 100.226 28.96C100.637 29.0613 100.967 29.1627 101.218 29.264C101.474 29.36 101.69 29.5093 101.866 29.712C102.042 29.9093 102.13 30.1787 102.13 30.52C102.13 30.8027 102.053 31.0613 101.898 31.296C101.749 31.5253 101.517 31.7093 101.202 31.848C100.887 31.9813 100.501 32.048 100.042 32.048ZM104.43 26.912H102.462V26.4H106.99V26.912H105.022V32H104.43V26.912ZM107.935 26.4H108.527V32H107.935V26.4ZM111.438 26.912H109.47V26.4H113.998V26.912H112.03V32H111.438V26.912ZM117.09 32.048C116.365 32.048 115.799 31.84 115.394 31.424C114.989 31.008 114.786 30.4027 114.786 29.608V26.4H115.378V29.584C115.378 30.2347 115.525 30.72 115.818 31.04C116.111 31.36 116.535 31.52 117.09 31.52C117.65 31.52 118.077 31.36 118.37 31.04C118.663 30.72 118.81 30.2347 118.81 29.584V26.4H119.386V29.608C119.386 30.4027 119.183 31.008 118.778 31.424C118.378 31.84 117.815 32.048 117.09 32.048ZM122.148 26.912H120.18V26.4H124.708V26.912H122.74V32H122.148V26.912ZM129.614 31.488V32H125.654V26.4H129.494V26.912H126.246V28.904H129.142V29.408H126.246V31.488H129.614Z" fill="#7E95A0"/>
</svg>
